HIERARCHY
ROOT Hips
{
	OFFSET 0 87.647 0
	CHANNELS 6 Xposition Yposition Zposition Yrotation Xrotation Zrotation 
	JOINT RightUpLeg
	{
		OFFSET -10.875 -1.587 0
		CHANNELS 3 Yrotation Xrotation Zrotation 
		JOINT RightLeg
		{
			OFFSET 0 -40.45 0
			CHANNELS 3 Yrotation Xrotation Zrotation 
			JOINT RightFoot
			{
				OFFSET 0 -38.38 0
				CHANNELS 3 Yrotation Xrotation Zrotation 
				End Site
				{
					OFFSET 0 -7.23 16.45
				}
			}
		}
	}
	JOINT LeftUpLeg
	{
		OFFSET 10.875 -1.587 0
		CHANNELS 3 Yrotation Xrotation Zrotation 
		JOINT LeftLeg
		{
			OFFSET 0 -40.45 0
			CHANNELS 3 Yrotation Xrotation Zrotation 
			JOINT LeftFoot
			{
				OFFSET 0 -38.38 0
				CHANNELS 3 Yrotation Xrotation Zrotation 
				End Site
				{
					OFFSET 0 -7.23 16.45
				}
			}
		}
	}
	JOINT Spine
	{
		OFFSET 0 14.284 0
		CHANNELS 3 Yrotation Xrotation Zrotation 
		JOINT Spine1
		{
			OFFSET 0 9.703 0
			CHANNELS 3 Yrotation Xrotation Zrotation 
			JOINT Spine2
			{
				OFFSET 0 10.103 0
				CHANNELS 3 Yrotation Xrotation Zrotation 
				JOINT Spine3
				{
					OFFSET 0 9.703 0
					CHANNELS 3 Yrotation Xrotation Zrotation 
					JOINT Neck
					{
						OFFSET 0 10.371 0
						CHANNELS 3 Yrotation Xrotation Zrotation 
						JOINT Head
						{
							OFFSET 0 8.82 0
							CHANNELS 3 Yrotation Xrotation Zrotation 
							End Site
							{
								OFFSET 0 16.6 0
							}
						}
					}
					JOINT RightShoulder
					{
						OFFSET -3.2 6.914 0
						CHANNELS 3 Yrotation Xrotation Zrotation 
						JOINT RightArm
						{
							OFFSET -12.8 0 0
							CHANNELS 3 Yrotation Xrotation Zrotation 
							JOINT RightForeArm
							{
								OFFSET -21.5 0 0
								CHANNELS 3 Yrotation Xrotation Zrotation 
								JOINT RightHand
								{
									OFFSET -23.5 0 0
									CHANNELS 3 Yrotation Xrotation Zrotation 
									JOINT RightHandThumb1
									{
										OFFSET -2.418 0.185 3.031
										CHANNELS 3 Yrotation Xrotation Zrotation 
										JOINT RightHandThumb2
										{
											OFFSET -3.578 0 0
											CHANNELS 3 Yrotation Xrotation Zrotation 
											JOINT RightHandThumb3
											{
												OFFSET -2.485 0 0
												CHANNELS 3 Yrotation Xrotation Zrotation 
												End Site
												{
													OFFSET -2.131 0 0
												}
											}
										}
									}
									JOINT RightInHandIndex
									{
										OFFSET -3.132 0.494 1.922
										CHANNELS 3 Yrotation Xrotation Zrotation 
										JOINT RightHandIndex1
										{
											OFFSET -5.068 -0.089 0.971
											CHANNELS 3 Yrotation Xrotation Zrotation 
											JOINT RightHandIndex2
											{
												OFFSET -3.516 0 0
												CHANNELS 3 Yrotation Xrotation Zrotation 
												JOINT RightHandIndex3
												{
													OFFSET -1.993 0 0
													CHANNELS 3 Yrotation Xrotation Zrotation 
													End Site
													{
														OFFSET -1.754 0 0
													}
												}
											}
										}
									}
									JOINT RightInHandMiddle
									{
										OFFSET -3.285 0.502 0.735
										CHANNELS 3 Yrotation Xrotation Zrotation 
										JOINT RightHandMiddle1
										{
											OFFSET -5.026 -0.082 0.305
											CHANNELS 3 Yrotation Xrotation Zrotation 
											JOINT RightHandMiddle2
											{
												OFFSET -3.837 0 0
												CHANNELS 3 Yrotation Xrotation Zrotation 
												JOINT RightHandMiddle3
												{
													OFFSET -2.405 0 0
													CHANNELS 3 Yrotation Xrotation Zrotation 
													End Site
													{
														OFFSET -1.918 0 0
													}
												}
											}
										}
									}
									JOINT RightInHandRing
									{
										OFFSET -3.269 0.523 -0.125
										CHANNELS 3 Yrotation Xrotation Zrotation 
										JOINT RightHandRing1
										{
											OFFSET -4.502 -0.021 -0.465
											CHANNELS 3 Yrotation Xrotation Zrotation 
											JOINT RightHandRing2
											{
												OFFSET -3.344 0 0
												CHANNELS 3 Yrotation Xrotation Zrotation 
												JOINT RightHandRing3
												{
													OFFSET -2.32 0 0
													CHANNELS 3 Yrotation Xrotation Zrotation 
													End Site
													{
														OFFSET -1.804 0 0
													}
												}
											}
										}
									}
									JOINT RightInHandPinky
									{
										OFFSET -3.071 0.456 -1.167
										CHANNELS 3 Yrotation Xrotation Zrotation 
										JOINT RightHandPinky1
										{
											OFFSET -4.023 -0.021 -1.059
											CHANNELS 3 Yrotation Xrotation Zrotation 
											JOINT RightHandPinky2
											{
												OFFSET -2.678 0 0
												CHANNELS 3 Yrotation Xrotation Zrotation 
												JOINT RightHandPinky3
												{
													OFFSET -1.692 0 0
													CHANNELS 3 Yrotation Xrotation Zrotation 
													End Site
													{
														OFFSET -1.598 0 0
													}
												}
											}
										}
									}
								}
							}
						}
					}
					JOINT LeftShoulder
					{
						OFFSET 3.2 6.914 0
						CHANNELS 3 Yrotation Xrotation Zrotation 
						JOINT LeftArm
						{
							OFFSET 12.8 0 0
							CHANNELS 3 Yrotation Xrotation Zrotation 
							JOINT LeftForeArm
							{
								OFFSET 21.5 0 0
								CHANNELS 3 Yrotation Xrotation Zrotation 
								JOINT LeftHand
								{
									OFFSET 23.5 0 0
									CHANNELS 3 Yrotation Xrotation Zrotation 
									JOINT LeftHandThumb1
									{
										OFFSET 2.418 0.185 3.031
										CHANNELS 3 Yrotation Xrotation Zrotation 
										JOINT LeftHandThumb2
										{
											OFFSET 3.578 0 0
											CHANNELS 3 Yrotation Xrotation Zrotation 
											JOINT LeftHandThumb3
											{
												OFFSET 2.485 0 0
												CHANNELS 3 Yrotation Xrotation Zrotation 
												End Site
												{
													OFFSET 2.131 0 0
												}
											}
										}
									}
									JOINT LeftInHandIndex
									{
										OFFSET 3.132 0.494 1.922
										CHANNELS 3 Yrotation Xrotation Zrotation 
										JOINT LeftHandIndex1
										{
											OFFSET 5.068 -0.089 0.971
											CHANNELS 3 Yrotation Xrotation Zrotation 
											JOINT LeftHandIndex2
											{
												OFFSET 3.516 0 0
												CHANNELS 3 Yrotation Xrotation Zrotation 
												JOINT LeftHandIndex3
												{
													OFFSET 1.993 0 0
													CHANNELS 3 Yrotation Xrotation Zrotation 
													End Site
													{
														OFFSET 1.754 0 0
													}
												}
											}
										}
									}
									JOINT LeftInHandMiddle
									{
										OFFSET 3.285 0.502 0.735
										CHANNELS 3 Yrotation Xrotation Zrotation 
										JOINT LeftHandMiddle1
										{
											OFFSET 5.026 -0.082 0.305
											CHANNELS 3 Yrotation Xrotation Zrotation 
											JOINT LeftHandMiddle2
											{
												OFFSET 3.837 0 0
												CHANNELS 3 Yrotation Xrotation Zrotation 
												JOINT LeftHandMiddle3
												{
													OFFSET 2.405 0 0
													CHANNELS 3 Yrotation Xrotation Zrotation 
													End Site
													{
														OFFSET 1.918 0 0
													}
												}
											}
										}
									}
									JOINT LeftInHandRing
									{
										OFFSET 3.269 0.523 -0.125
										CHANNELS 3 Yrotation Xrotation Zrotation 
										JOINT LeftHandRing1
										{
											OFFSET 4.502 -0.021 -0.465
											CHANNELS 3 Yrotation Xrotation Zrotation 
											JOINT LeftHandRing2
											{
												OFFSET 3.344 0 0
												CHANNELS 3 Yrotation Xrotation Zrotation 
												JOINT LeftHandRing3
												{
													OFFSET 2.32 0 0
													CHANNELS 3 Yrotation Xrotation Zrotation 
													End Site
													{
														OFFSET 1.804 0 0
													}
												}
											}
										}
									}
									JOINT LeftInHandPinky
									{
										OFFSET 3.071 0.456 -1.167
										CHANNELS 3 Yrotation Xrotation Zrotation 
										JOINT LeftHandPinky1
										{
											OFFSET 4.023 -0.021 -1.059
											CHANNELS 3 Yrotation Xrotation Zrotation 
											JOINT LeftHandPinky2
											{
												OFFSET 2.678 0 0
												CHANNELS 3 Yrotation Xrotation Zrotation 
												JOINT LeftHandPinky3
												{
													OFFSET 1.692 0 0
													CHANNELS 3 Yrotation Xrotation Zrotation 
													End Site
													{
														OFFSET 1.598 0 0
													}
												}
											}
										}
									}
								}
							}
						}
					}
				}
			}
		}
	}
}
MOTION
Frames: 7
Frame Time: 0.008
-0.326588 86.4826 3.72496 32.7595 -4.93253 -0.111657 1.33369 -4.69612 2.89652 -2.39571e-006 28.9742 -1.0599e-006 2.03542 -18.2404 -4.74798 -0.522931 -4.57813 1.00959 6.2423e-006 29.7056 2.09709e-006 -0.5701 -20.1228 0.588518 -1.45377 7.74881 1.24218 -0.35068 1.93461 0.328541 -0.552786 3.20302 0.540295 1.19934 -0.218931 -0.207108 1.2107 -0.216374 -0.208408 22.4634 -2.63844 -4.36909 -4.96258 -2.02642 6.96457 34.4227 -1.68745 74.2139 3.93556 38.7971 -5.18903 4.20109 -17.9914 -10.5116 21.86 -0 30 -10 -0 0 -10 -0 0 0 -0 0 2.55 -0 20 0 -0 24 0 -0 20 0 -0 0 0 -0 20 0 -0 24 0 -0 20 0 -0 0 -3 -0 20 0 -0 24 0 -0 20 0 -0 0 -8.83 -0 20 0 -0 24 0 -0 20 -0.701861 1.1131 -5.19459 -35.5397 -5.8447 -76.467 -1.20406 39.7337 2.0835 -11.4762 -8.51701 11.0102 -21.86 -0 -30 10 -0 0 10 -0 0 0 -0 0 -2.55 -0 -20 0 -0 -24 0 -0 -20 0 -0 0 0 -0 -20 0 -0 -24 0 -0 -20 0 -0 0 3 -0 -20 0 -0 -24 0 -0 -20 0 -0 0 8.83 -0 -20 0 -0 -24 0 -0 -20 
-0.318115 86.417 3.89379 32.6745 -4.93006 -0.0808726 1.33222 -4.72688 2.92522 -4.08816e-006 29.2427 -1.50769e-006 2.13631 -18.4387 -4.87841 -0.421739 -4.64814 1.06182 -3.03714e-006 30.0771 -8.1599e-007 -0.637107 -20.3344 0.625888 -1.44849 7.79478 1.20433 -0.349609 1.9461 0.319127 -0.5517 3.2217 0.524605 1.2026 -0.22273 -0.206703 1.21407 -0.220214 -0.208017 22.5325 -2.71086 -4.37778 -4.93928 -2.0423 6.94866 34.4156 -1.70126 74.2198 3.98415 38.7573 -5.17108 4.20966 -17.9824 -10.5132 21.86 -0 30 -10 -0 0 -10 -0 0 0 -0 0 2.55 -0 20 0 -0 24 0 -0 20 0 -0 0 0 -0 20 0 -0 24 0 -0 20 0 -0 0 -3 -0 20 0 -0 24 0 -0 20 0 -0 0 -8.83 -0 20 0 -0 24 0 -0 20 -0.711831 1.12143 -5.19149 -35.5485 -5.86893 -76.4735 -1.20206 39.4888 2.15421 -11.4915 -8.50259 11.0361 -21.86 -0 -30 10 -0 0 10 -0 0 0 -0 0 -2.55 -0 -20 0 -0 -24 0 -0 -20 0 -0 0 0 -0 -20 0 -0 -24 0 -0 -20 0 -0 0 3 -0 -20 0 -0 -24 0 -0 -20 0 -0 0 8.83 -0 -20 0 -0 -24 0 -0 -20 
-0.313206 86.3441 4.06216 32.5978 -4.92688 -0.0368265 1.34735 -4.76233 2.94626 -6.45891e-007 29.5247 2.71261e-007 2.2179 -18.6617 -4.99136 -0.326601 -4.76974 1.10536 2.10297e-006 30.5436 1.01671e-006 -0.68322 -20.5667 0.645115 -1.52815 7.93694 1.11771 -0.3699 1.98124 0.298855 -0.586863 3.27873 0.490333 1.21176 -0.234198 -0.205628 1.22349 -0.231815 -0.206989 22.7275 -2.9296 -4.40684 -4.71517 -2.2184 6.97355 34.1634 -1.5823 74.247 4.20566 38.8495 -5.14985 4.21485 -17.9822 -10.5039 21.86 -0 30 -10 -0 0 -10 -0 0 0 -0 0 2.55 -0 20 0 -0 24 0 -0 20 0 -0 0 0 -0 20 0 -0 24 0 -0 20 0 -0 0 -3 -0 20 0 -0 24 0 -0 20 0 -0 0 -8.83 -0 20 0 -0 24 0 -0 20 -0.582115 0.979028 -5.1423 -35.8372 -5.74585 -76.7595 -1.03797 38.9812 2.62208 -11.4498 -8.36993 11.0102 -21.86 -0 -30 10 -0 0 10 -0 0 0 -0 0 -2.55 -0 -20 0 -0 -24 0 -0 -20 0 -0 0 0 -0 -20 0 -0 -24 0 -0 -20 0 -0 0 3 -0 -20 0 -0 -24 0 -0 -20 0 -0 0 8.83 -0 -20 0 -0 -24 0 -0 -20 
-0.3073 86.263 4.23134 32.5325 -4.92049 0.0106606 1.36147 -4.81203 2.96428 1.52205e-006 29.8345 -9.19848e-007 2.29227 -18.9053 -5.10668 -0.327293 -4.9163 1.12963 1.88706e-006 31.0489 1.4103e-006 -0.637072 -20.7907 0.626746 -1.52778 7.97923 1.07295 -0.370126 1.99177 0.287778 -0.588163 3.29578 0.471852 1.21437 -0.237902 -0.205416 1.22617 -0.235562 -0.206791 22.7837 -2.99971 -4.41854 -4.85457 -2.1994 6.95739 34.2854 -1.60571 74.2557 4.25608 38.8331 -5.14626 4.22002 -17.9833 -10.4936 21.86 -0 30 -10 -0 0 -10 -0 0 0 -0 0 2.55 -0 20 0 -0 24 0 -0 20 0 -0 0 0 -0 20 0 -0 24 0 -0 20 0 -0 0 -3 -0 20 0 -0 24 0 -0 20 0 -0 0 -8.83 -0 20 0 -0 24 0 -0 20 -0.595266 0.981078 -5.12231 -35.845 -5.75974 -76.7745 -1.07189 38.7777 2.69192 -11.4082 -8.24747 10.9693 -21.86 -0 -30 10 -0 0 10 -0 0 0 -0 0 -2.55 -0 -20 0 -0 -24 0 -0 -20 0 -0 0 0 -0 -20 0 -0 -24 0 -0 -20 0 -0 0 3 -0 -20 0 -0 -24 0 -0 -20 0 -0 0 8.83 -0 -20 0 -0 -24 0 -0 -20 
-0.302262 86.1757 4.40323 32.4741 -4.9135 0.0673238 1.3544 -4.86668 2.9708 -8.45507e-007 30.1648 6.56377e-007 2.38015 -19.1691 -5.22252 -0.335567 -5.01697 1.14996 -1.80612e-006 31.4774 3.78036e-007 -0.578589 -21.1253 0.531897 -1.53105 8.01925 1.02701 -0.371277 2.0017 0.276449 -0.59104 3.31185 0.452936 1.19589 -0.233474 -0.202171 1.20715 -0.231179 -0.203475 22.4095 -2.95981 -4.33574 -4.79203 -2.23097 6.91143 34.2025 -1.60201 74.2968 4.31029 38.8246 -5.15293 4.23468 -17.9703 -10.4829 21.86 -0 30 -10 -0 0 -10 -0 0 0 -0 0 2.55 -0 20 0 -0 24 0 -0 20 0 -0 0 0 -0 20 0 -0 24 0 -0 20 0 -0 0 -3 -0 20 0 -0 24 0 -0 20 0 -0 0 -8.83 -0 20 0 -0 24 0 -0 20 -0.585105 0.97622 -5.10346 -35.8623 -5.7755 -76.8038 -1.10471 38.5816 2.76732 -11.414 -8.27696 10.9877 -21.86 -0 -30 10 -0 0 10 -0 0 0 -0 0 -2.55 -0 -20 0 -0 -24 0 -0 -20 0 -0 0 0 -0 -20 0 -0 -24 0 -0 -20 0 -0 0 3 -0 -20 0 -0 -24 0 -0 -20 0 -0 0 8.83 -0 -20 0 -0 -24 0 -0 -20 
-0.300133 86.0804 4.57327 32.4334 -4.89585 0.123316 1.34259 -4.93556 2.97879 1.22314e-007 30.5015 -1.07282e-006 2.45116 -19.4454 -5.33655 -0.355115 -5.19186 1.17149 -9.98239e-007 32.0292 -2.86516e-007 -0.528584 -21.5198 0.438906 -1.53633 8.0544 0.983733 -0.372909 2.01042 0.265798 -0.594685 3.32592 0.435143 1.17695 -0.229209 -0.199529 1.1877 -0.226951 -0.200769 22.0284 -2.91837 -4.2642 -4.81735 -2.25012 6.86976 34.1917 -1.60788 74.3364 4.37015 38.8273 -5.16249 4.23832 -17.9709 -10.4704 21.86 -0 30 -10 -0 0 -10 -0 0 0 -0 0 2.55 -0 20 0 -0 24 0 -0 20 0 -0 0 0 -0 20 0 -0 24 0 -0 20 0 -0 0 -3 -0 20 0 -0 24 0 -0 20 0 -0 0 -8.83 -0 20 0 -0 24 0 -0 20 -0.585311 0.964703 -5.07542 -35.8833 -5.78335 -76.8404 -1.15097 38.382 2.84802 -11.4146 -8.30538 10.998 -21.86 -0 -30 10 -0 0 10 -0 0 0 -0 0 -2.55 -0 -20 0 -0 -24 0 -0 -20 0 -0 0 0 -0 -20 0 -0 -24 0 -0 -20 0 -0 0 3 -0 -20 0 -0 -24 0 -0 -20 0 -0 0 8.83 -0 -20 0 -0 -24 0 -0 -20 
-0.293014 85.9748 4.74563 32.4041 -4.87261 0.187109 1.32946 -5.02663 2.97565 -3.69693e-006 30.8834 -3.56889e-007 2.51252 -19.7568 -5.44075 -0.351165 -5.46536 1.1844 8.61333e-007 32.7599 -1.91769e-007 -0.525584 -21.8194 0.417695 -1.55055 8.08936 0.943778 -0.376753 2.01904 0.256096 -0.601928 3.33984 0.418885 1.17882 -0.233157 -0.200466 1.18964 -0.230917 -0.201724 22.0712 -2.98516 -4.29582 -4.87865 -2.26401 6.82504 34.1921 -1.60571 74.3735 4.42946 38.8269 -5.17904 4.24307 -17.9764 -10.445 21.86 -0 30 -10 -0 0 -10 -0 0 0 -0 0 2.55 -0 20 0 -0 24 0 -0 20 0 -0 0 0 -0 20 0 -0 24 0 -0 20 0 -0 0 -3 -0 20 0 -0 24 0 -0 20 0 -0 0 -8.83 -0 20 0 -0 24 0 -0 20 -0.598081 0.957147 -5.05215 -35.9219 -5.7824 -76.8802 -1.21464 38.1743 2.9318 -11.5323 -8.6046 11.1354 -21.86 -0 -30 10 -0 0 10 -0 0 0 -0 0 -2.55 -0 -20 0 -0 -24 0 -0 -20 0 -0 0 0 -0 -20 0 -0 -24 0 -0 -20 0 -0 0 3 -0 -20 0 -0 -24 0 -0 -20 0 -0 0 8.83 -0 -20 0 -0 -24 0 -0 -20 
